<svg xmlns="http://www.w3.org/2000/svg" viewBox="0 0 512 512">
<path d="M 384.08984 16.210938 C 378.19737 16.293769 372.23301 17.810761 366.71094 20.904297 L 269.67773 75.263672 C 252.00711 85.162987 245.74912 107.35672 255.64844 125.02734 L 310.00781 222.0625 C 319.90713 239.73313 342.10281 245.98916 359.77344 236.08984 L 456.80664 181.73047 C 474.47727 171.83115 480.73525 149.63547 470.83594 131.96484 L 416.47656 34.931641 C 409.67078 22.783084 397.05328 16.028709 384.08984 16.210938 z M 77.287109 56.441406 C 57.032541 56.441406 40.726563 72.747385 40.726562 93.001953 L 40.726562 204.22461 C 40.726563 224.47918 57.032541 240.78516 77.287109 240.78516 L 188.50977 240.78516 C 208.76433 240.78516 225.07031 224.47918 225.07031 204.22461 L 225.07031 93.001953 C 225.07031 72.747385 208.76433 56.441406 188.50977 56.441406 L 77.287109 56.441406 z M 77.287109 290.78516 C 57.032541 290.78516 40.726563 307.09113 40.726562 327.3457 L 40.726562 438.56836 C 40.726563 458.82293 57.032541 475.12891 77.287109 475.12891 L 188.50977 475.12891 C 208.76433 475.12891 225.07031 458.82293 225.07031 438.56836 L 225.07031 327.3457 C 225.07031 307.09113 208.76433 290.78516 188.50977 290.78516 L 77.287109 290.78516 z M 307.63086 290.78516 C 287.37629 290.78516 271.07031 307.09113 271.07031 327.3457 L 271.07031 438.56836 C 271.07031 458.82293 287.37629 475.12891 307.63086 475.12891 L 418.85352 475.12891 C 439.10808 475.12891 455.41406 458.82293 455.41406 438.56836 L 455.41406 327.3457 C 455.41406 307.09113 439.10808 290.78516 418.85352 290.78516 L 307.63086 290.78516 z "/>
</svg>